<svg version="1.1" id="Layer_1" xmlns="http://www.w3.org/2000/svg" x="0" y="0" width="193" height="43" viewBox="0 0 193 43" xml:space="preserve"><style>.st0{fill:#77777a}.st1{fill:#bcb21f}.st2{fill:#fff}.st3{fill:#e9dfaa}</style><path class="st0" d="M65.5,22.1c1.8,0,3.5-0.7,4.8-1.8c1.5-1.2,3.3,0.9,1.9,2.2C70.4,24.1,68,25,65.5,25c-5.7,0-10.2-4.6-10.2-10.3 c0-5.7,4.6-10.3,10.2-10.3c2.5,0,4.9,0.9,6.7,2.5c1.5,1.3-0.3,3.5-1.9,2.2c-1.3-1.1-3-1.8-4.8-1.8c-3.5,0-6.5,2.5-7.1,5.8h13.9v2.9 H58.3C59,19.6,62,22.1,65.5,22.1L65.5,22.1z"/><path class="st0" d="M86.9,22.1c2.4,0,4.4-2,4.4-4.4V6c0-0.8,0.6-1.5,1.5-1.5c0.8,0,1.5,0.6,1.5,1.5v11.6c0,4-3.3,7.4-7.4,7.4 c-4.1,0-7.4-3.4-7.4-7.4V6c0-0.8,0.6-1.5,1.5-1.5c0.8,0,1.5,0.6,1.5,1.5v11.6C82.5,20.1,84.5,22.1,86.9,22.1L86.9,22.1z"/><path class="st0" d="M111.4,4.6c3.5,0,5.6,2,5.6,5.5c0,0.8-0.6,1.5-1.5,1.5c-0.8,0-1.5-0.6-1.5-1.5c0-1.2-0.8-2.6-2.7-2.6 c-2.2,0-4.4,1.3-6.3,2.7v14.5h-2.9V4.9h2.9v1.9C107.1,5.5,109.3,4.6,111.4,4.6L111.4,4.6z"/><path class="st0" d="M137.5,14.8c0,4-3.3,7.3-7.3,7.3c-4,0-7.3-3.3-7.3-7.3c0-4,3.3-7.3,7.3-7.3C134.2,7.5,137.5,10.8,137.5,14.8 L137.5,14.8z M140.5,14.8c0-5.7-4.6-10.2-10.3-10.2c-5.7,0-10.3,4.6-10.3,10.2c0,5.7,4.6,10.2,10.3,10.2 C135.9,25,140.5,20.5,140.5,14.8L140.5,14.8z"/><path class="st0" d="M164.7,14.8c0,4-3.3,7.3-7.3,7.3s-7.3-3.3-7.3-7.3c0-4,3.3-7.3,7.3-7.3S164.7,10.8,164.7,14.8L164.7,14.8z M167.6,14.8c0-5.7-4.6-10.2-10.2-10.2c-2.9,0-5.4,1.2-7.3,3.1V4.9h-2.9V43h2.9V22c1.9,1.9,4.4,3.1,7.3,3.1 C163,25,167.6,20.5,167.6,14.8L167.6,14.8z"/><path class="st0" d="M193,24.8V5h-2.9v2.8c-1.9-1.9-4.4-3.1-7.3-3.1c-5.6,0-10.2,4.6-10.2,10.2c0,5.7,4.6,10.2,10.2,10.2 c2.9,0,5.4-1.2,7.3-3.1v2.7H193L193,24.8z M190.1,14.9c0,4-3.3,7.3-7.3,7.3s-7.3-3.3-7.3-7.3c0-4,3.3-7.3,7.3-7.3 S190.1,10.9,190.1,14.9L190.1,14.9z"/><path class="st0" d="M59.7,33.7c0,1.1,0.5,2,1.7,2c0.7,0,1.3-0.5,1.4-1.2h0.6c-0.3,1.2-1.1,1.7-2.3,1.7c-1.5,0-2.2-1.3-2.2-2.7 c0-1.4,0.8-2.7,2.2-2.7c1.7,0,2.3,1.2,2.3,2.8H59.7z M62.9,33.1c-0.1-1-0.6-1.7-1.6-1.7c-1,0-1.5,0.8-1.6,1.7H62.9z"/><path class="st0" d="M72,31l1.7,4.2l1.7-4.2H76L73.3,38h-0.7l0.8-1.9l-2.1-5H72z"/><path class="st0" d="M84.5,33.7c0,1.1,0.5,2,1.7,2c0.7,0,1.3-0.5,1.4-1.2h0.6c-0.3,1.2-1.1,1.7-2.3,1.7c-1.5,0-2.2-1.3-2.2-2.7 c0-1.4,0.8-2.7,2.2-2.7c1.7,0,2.3,1.2,2.3,2.8H84.5z M87.7,33.1c-0.1-1-0.6-1.7-1.6-1.7c-1,0-1.5,0.8-1.6,1.7H87.7z"/><path class="st0" d="M98.3,35.3L98.3,35.3l1.5-4.2h0.7l1.5,4.2h0l1.4-4.2h0.7l-1.9,5h-0.6l-1.5-4.3h0l-1.6,4.3H98l-1.8-5h0.7 L98.3,35.3z"/><path class="st0" d="M112.6,33.7c0,1.1,0.5,2,1.7,2c0.7,0,1.3-0.5,1.4-1.2h0.6c-0.3,1.2-1.1,1.7-2.3,1.7c-1.5,0-2.2-1.3-2.2-2.7 c0-1.4,0.7-2.7,2.2-2.7c1.7,0,2.3,1.2,2.3,2.8H112.6z M115.8,33.1c-0.1-1-0.6-1.7-1.6-1.7c-1,0-1.5,0.8-1.6,1.7H115.8z"/><path class="st0" d="M127.9,32.5c-0.1-0.8-0.5-1.1-1.2-1.1c-0.6,0-1.1,0.2-1.2,0.9h-0.6c0.1-1,0.9-1.4,1.9-1.4 c1.1,0,1.8,0.5,1.8,1.7v2.4c0,0.4,0,0.8,0.1,1.1h-0.6l0-0.7h0l0,0.1c-0.2,0.4-0.9,0.8-1.6,0.8c-0.9,0-1.7-0.6-1.7-1.5 c0-0.7,0.4-1.2,1-1.4c0.7-0.3,1.5-0.2,2.3-0.2V32.5z M126.4,35.7c1.3,0,1.6-1.1,1.5-2.1c-0.8,0-2.6-0.1-2.6,1.1 C125.3,35.3,125.8,35.7,126.4,35.7z"/><path class="st0" d="M138,36.1h-0.6v-3.9c0-0.4,0-0.8,0-1.1h0.6l0,0.7h0c0.2-0.5,0.6-0.9,1.1-0.9c0.2,0,0.4,0,0.6,0v0.6 c-0.1,0-0.2,0-0.4,0c-0.9,0-1.4,0.6-1.4,1.6V36.1z"/><path class="st1" d="M23.9,4.3c-2.4-2.1-5.6-3.3-9-3.3C7.2,1,1,7.2,1,14.8c0,7.7,6.2,13.9,13.9,13.9c3.5,0,6.6-1.3,9-3.4 c-2.7-2.7-4.3-6.4-4.3-10.5C19.6,10.7,21.2,7,23.9,4.3z"/><path class="st2" d="M23.9,25.4C23.9,25.4,23.9,25.4,23.9,25.4C23.9,25.4,23.9,25.4,23.9,25.4c-2.4,2.1-5.6,3.3-9.1,3.3 C7.2,28.7,1,22.5,1,14.8C1,7.2,7.2,1,14.9,1c3.5,0,6.6,1.3,9,3.3c0,0,0,0,0,0c0,0,0,0,0,0c0.2-0.2,0.5-0.5,0.7-0.7 C22,1.4,18.6,0,14.9,0C10.7,0,7,1.7,4.3,4.3C1.7,7,0,10.7,0,14.8c0,4.1,1.7,7.8,4.3,10.5c2.7,2.7,6.4,4.3,10.5,4.3 c3.8,0,7.2-1.4,9.8-3.7C24.4,25.8,24.1,25.6,23.9,25.4z"/><path class="st3" d="M29.7,14.8c0,4.1-1.7,7.8-4.3,10.5c2.4,2.1,5.6,3.3,9.1,3.3c7.7,0,13.9-6.2,13.9-13.9C48.3,7.2,42.1,1,34.4,1 c-3.5,0-6.6,1.3-9,3.3C28.1,7,29.7,10.7,29.7,14.8z"/><path class="st1" d="M28.7,14.8c0-3.9-1.6-7.3-4.1-9.8c-2.5,2.5-4.1,6-4.1,9.8c0,3.9,1.6,7.3,4.1,9.8 C27.2,22.2,28.7,18.7,28.7,14.8z"/><path d="M25.4,4.3c-0.3,0.2-0.5,0.4-0.7,0.7c2.5,2.5,4.1,6,4.1,9.8c0,3.9-1.6,7.3-4.1,9.8c0.2,0.2,0.5,0.5,0.7,0.7 c2.7-2.7,4.3-6.4,4.3-10.5C29.7,10.7,28.1,7,25.4,4.3z" fill="#f5efd4"/><path class="st3" d="M20.6,14.8c0-3.9,1.6-7.3,4.1-9.8c-0.2-0.2-0.5-0.5-0.7-0.7c0,0,0,0,0,0c-2.7,2.7-4.3,6.4-4.3,10.5 c0,4.1,1.7,7.8,4.3,10.5c0,0,0,0,0,0c0.3-0.2,0.5-0.4,0.7-0.7C22.1,22.2,20.6,18.7,20.6,14.8z"/><path class="st2" d="M24.6,24.7c-0.2,0.2-0.5,0.5-0.7,0.7c0,0,0,0,0,0c0.2,0.2,0.5,0.5,0.7,0.7c0,0,0,0,0,0 c0.3-0.2,0.5-0.4,0.7-0.7C25.1,25.2,24.9,24.9,24.6,24.7z"/><path class="st2" d="M44.9,4.3C42.3,1.7,38.5,0,34.4,0c0,0,0,0,0,0c-3.8,0-7.2,1.4-9.8,3.7c0.3,0.2,0.5,0.4,0.7,0.7c0,0,0,0,0,0 C27.8,2.3,31,1,34.4,1c7.7,0,13.9,6.2,13.9,13.8c0,7.7-6.2,13.9-13.9,13.9c-3.5,0-6.6-1.3-9.1-3.3c-0.2,0.2-0.5,0.5-0.7,0.7 c2.6,2.3,6,3.7,9.8,3.7h0c4.1,0,7.8-1.7,10.5-4.3c2.7-2.7,4.3-6.4,4.3-10.5C49.3,10.7,47.6,7,44.9,4.3z"/><path class="st2" d="M23.9,4.3C23.9,4.3,23.9,4.3,23.9,4.3c0.3,0.2,0.5,0.4,0.7,0.7c0.2-0.2,0.5-0.5,0.7-0.7c0,0,0,0,0,0 c-0.2-0.2-0.5-0.5-0.7-0.7c0,0,0,0,0,0C24.4,3.9,24.1,4.1,23.9,4.3z"/></svg>